<?xml version="1.0" encoding="UTF-8" standalone="no"?>
<svg
   xmlns:dc="http://purl.org/dc/elements/1.1/"
   xmlns:cc="http://creativecommons.org/ns#"
   xmlns:rdf="http://www.w3.org/1999/02/22-rdf-syntax-ns#"
   xmlns:svg="http://www.w3.org/2000/svg"
   xmlns="http://www.w3.org/2000/svg"
   xmlns:sodipodi="http://sodipodi.sourceforge.net/DTD/sodipodi-0.dtd"
   xmlns:inkscape="http://www.inkscape.org/namespaces/inkscape"
   height="127"
   viewBox="0 0 63.5 63.5"
   width="127"
   id="svg2"
   version="1.1"
   inkscape:version="0.91 r13725"
   sodipodi:docname="logo.svg"
   style="fill:#000000">
  <metadata
     id="metadata12">
    <rdf:RDF>
      <cc:Work
         rdf:about="">
        <dc:format>image/svg+xml</dc:format>
        <dc:type
           rdf:resource="http://purl.org/dc/dcmitype/StillImage" />
        <dc:title></dc:title>
      </cc:Work>
    </rdf:RDF>
  </metadata>
  <defs
     id="defs10" />
  <sodipodi:namedview
     pagecolor="#ffffff"
     bordercolor="#666666"
     borderopacity="1"
     objecttolerance="10"
     gridtolerance="10"
     guidetolerance="10"
     inkscape:pageopacity="0"
     inkscape:pageshadow="2"
     inkscape:window-width="1474"
     inkscape:window-height="841"
     id="namedview8"
     showgrid="false"
     fit-margin-top="0"
     fit-margin-left="0"
     fit-margin-right="0"
     fit-margin-bottom="0"
     inkscape:zoom="1"
     inkscape:cx="119.11935"
     inkscape:cy="-10.107212"
     inkscape:window-x="54"
     inkscape:window-y="474"
     inkscape:window-maximized="1"
     inkscape:current-layer="svg2" />
  <path
     d="m 18.5,33.958333 c -1.214583,0 -2.208333,0.99375 -2.208333,2.208334 0,1.214583 0.99375,2.208333 2.208333,2.208333 1.214583,0 2.208333,-0.99375 2.208333,-2.208333 0,-1.214584 -0.99375,-2.208334 -2.208333,-2.208334 z m 0,8.833334 c -1.214583,0 -2.208333,0.99375 -2.208333,2.208333 0,1.214583 0.99375,2.208333 2.208333,2.208333 1.214583,0 2.208333,-0.99375 2.208333,-2.208333 0,-1.214583 -0.99375,-2.208333 -2.208333,-2.208333 z M 18.5,25.125 c -1.214583,0 -2.208333,0.99375 -2.208333,2.208333 0,1.214584 0.99375,2.208334 2.208333,2.208334 1.214583,0 2.208333,-0.99375 2.208333,-2.208334 C 20.708333,26.11875 19.714583,25.125 18.5,25.125 Z m -6.625,1.104167 c -0.618333,0 -1.104167,0.485833 -1.104167,1.104166 0,0.618334 0.485834,1.104167 1.104167,1.104167 0.618333,0 1.104167,-0.485833 1.104167,-1.104167 0,-0.618333 -0.485834,-1.104166 -1.104167,-1.104166 z m 6.625,-9.9375 c -1.214583,0 -2.208333,0.99375 -2.208333,2.208333 0,1.214583 0.99375,2.208333 2.208333,2.208333 1.214583,0 2.208333,-0.99375 2.208333,-2.208333 0,-1.214583 -0.99375,-2.208333 -2.208333,-2.208333 z M 51.625,28.4375 c 0.618333,0 1.104167,-0.485833 1.104167,-1.104167 0,-0.618333 -0.485834,-1.104166 -1.104167,-1.104166 -0.618333,0 -1.104167,0.485833 -1.104167,1.104166 0,0.618334 0.485834,1.104167 1.104167,1.104167 z M 36.166667,20.708333 c 1.214583,0 2.208333,-0.99375 2.208333,-2.208333 0,-1.214583 -0.99375,-2.208333 -2.208333,-2.208333 -1.214584,0 -2.208334,0.99375 -2.208334,2.208333 0,1.214583 0.99375,2.208333 2.208334,2.208333 z m 0,-7.729166 c 0.618333,0 1.104166,-0.485834 1.104166,-1.104167 0,-0.618333 -0.485833,-1.104167 -1.104166,-1.104167 -0.618334,0 -1.104167,0.485834 -1.104167,1.104167 0,0.618333 0.485833,1.104167 1.104167,1.104167 z M 11.875,35.0625 c -0.618333,0 -1.104167,0.485833 -1.104167,1.104167 0,0.618333 0.485834,1.104166 1.104167,1.104166 0.618333,0 1.104167,-0.485833 1.104167,-1.104166 0,-0.618334 -0.485834,-1.104167 -1.104167,-1.104167 z m 15.458333,15.458333 c -0.618333,0 -1.104166,0.485834 -1.104166,1.104167 0,0.618333 0.485833,1.104167 1.104166,1.104167 0.618334,0 1.104167,-0.485834 1.104167,-1.104167 0,-0.618333 -0.485833,-1.104167 -1.104167,-1.104167 z m 0,-37.541666 c 0.618334,0 1.104167,-0.485834 1.104167,-1.104167 0,-0.618333 -0.485833,-1.104167 -1.104167,-1.104167 -0.618333,0 -1.104166,0.485834 -1.104166,1.104167 0,0.618333 0.485833,1.104167 1.104166,1.104167 z m 0,7.729166 c 1.214584,0 2.208334,-0.99375 2.208334,-2.208333 0,-1.214583 -0.99375,-2.208333 -2.208334,-2.208333 -1.214583,0 -2.208333,0.99375 -2.208333,2.208333 0,1.214583 0.99375,2.208333 2.208333,2.208333 z m 0,12.145834 c -1.832916,0 -3.3125,1.479583 -3.3125,3.3125 0,1.832916 1.479584,3.3125 3.3125,3.3125 1.832917,0 3.3125,-1.479584 3.3125,-3.3125 0,-1.832917 -1.479583,-3.3125 -3.3125,-3.3125 z M 45,33.958333 c -1.214583,0 -2.208333,0.99375 -2.208333,2.208334 0,1.214583 0.99375,2.208333 2.208333,2.208333 1.214583,0 2.208333,-0.99375 2.208333,-2.208333 0,-1.214584 -0.99375,-2.208334 -2.208333,-2.208334 z m 0,8.833334 c -1.214583,0 -2.208333,0.99375 -2.208333,2.208333 0,1.214583 0.99375,2.208333 2.208333,2.208333 1.214583,0 2.208333,-0.99375 2.208333,-2.208333 0,-1.214583 -0.99375,-2.208333 -2.208333,-2.208333 z M 45,25.125 c -1.214583,0 -2.208333,0.99375 -2.208333,2.208333 0,1.214584 0.99375,2.208334 2.208333,2.208334 1.214583,0 2.208333,-0.99375 2.208333,-2.208334 C 47.208333,26.11875 46.214583,25.125 45,25.125 Z m 0,-8.833333 c -1.214583,0 -2.208333,0.99375 -2.208333,2.208333 0,1.214583 0.99375,2.208333 2.208333,2.208333 1.214583,0 2.208333,-0.99375 2.208333,-2.208333 0,-1.214583 -0.99375,-2.208333 -2.208333,-2.208333 z M 51.625,35.0625 c -0.618333,0 -1.104167,0.485833 -1.104167,1.104167 0,0.618333 0.485834,1.104166 1.104167,1.104166 0.618333,0 1.104167,-0.485833 1.104167,-1.104166 0,-0.618334 -0.485834,-1.104167 -1.104167,-1.104167 z m -15.458333,7.729167 c -1.214584,0 -2.208334,0.99375 -2.208334,2.208333 0,1.214583 0.99375,2.208333 2.208334,2.208333 1.214583,0 2.208333,-0.99375 2.208333,-2.208333 0,-1.214583 -0.99375,-2.208333 -2.208333,-2.208333 z m 0,7.729166 c -0.618334,0 -1.104167,0.485834 -1.104167,1.104167 0,0.618333 0.485833,1.104167 1.104167,1.104167 0.618333,0 1.104166,-0.485834 1.104166,-1.104167 0,-0.618333 -0.485833,-1.104167 -1.104166,-1.104167 z m -8.833334,-26.5 c -1.832916,0 -3.3125,1.479584 -3.3125,3.3125 0,1.832917 1.479584,3.3125 3.3125,3.3125 1.832917,0 3.3125,-1.479583 3.3125,-3.3125 0,-1.832916 -1.479583,-3.3125 -3.3125,-3.3125 z m 0,18.770834 C 26.11875,42.791667 25.125,43.785417 25.125,45 c 0,1.214583 0.99375,2.208333 2.208333,2.208333 1.214584,0 2.208334,-0.99375 2.208334,-2.208333 0,-1.214583 -0.99375,-2.208333 -2.208334,-2.208333 z m 8.833334,-9.9375 c -1.832917,0 -3.3125,1.479583 -3.3125,3.3125 0,1.832916 1.479583,3.3125 3.3125,3.3125 1.832916,0 3.3125,-1.479584 3.3125,-3.3125 0,-1.832917 -1.479584,-3.3125 -3.3125,-3.3125 z m 0,-8.833334 c -1.832917,0 -3.3125,1.479584 -3.3125,3.3125 0,1.832917 1.479583,3.3125 3.3125,3.3125 1.832916,0 3.3125,-1.479583 3.3125,-3.3125 0,-1.832916 -1.479584,-3.3125 -3.3125,-3.3125 z"
     id="path4"
     inkscape:connector-curvature="0" />
  <path
     d="m 0,0 63.5,0 0,63.5 -63.5,0 z"
     id="path6"
     inkscape:connector-curvature="0"
     style="fill:none" />
</svg>
